<?xml version="1.0" encoding="utf-8"?>
<!-- Generator: Adobe Illustrator 22.0.0, SVG Export Plug-In . SVG Version: 6.00 Build 0)  -->
<svg version="1.1" id="Layer_1" xmlns="http://www.w3.org/2000/svg" xmlns:xlink="http://www.w3.org/1999/xlink" x="0px" y="0px"
	 viewBox="0 0 100 100" style="enable-background:new 0 0 100 100;" xml:space="preserve">
<style type="text/css">
	.st0{fill:url(#SVGID_1_);}
	.st1{fill:url(#SVGID_2_);}
</style>
<g>
	<g>
		<g>
			<linearGradient id="SVGID_1_" gradientUnits="userSpaceOnUse" x1="23.3573" y1="50.1999" x2="76.4654" y2="50.1999">
				<stop  offset="0" style="stop-color:#26BDEB"/>
				<!-- <stop  offset="0.202" style="stop-color:#23B8E9"/>
				<stop  offset="0.4572" style="stop-color:#1CA8E3"/>
				<stop  offset="0.7395" style="stop-color:#0F8ED8"/>
				<stop  offset="1" style="stop-color:#0070CC"/> -->
			</linearGradient>
			<path class="st0" d="M41.2,50.2L75,16.4c0.9-0.9,1.4-2.2,1.4-3.5c0-1.3-0.5-2.6-1.4-3.5l-3-3C71.1,5.5,69.9,5,68.6,5
				S66,5.5,65.1,6.4L24.8,46.7c-0.9,0.9-1.4,2.2-1.4,3.5c0,1.3,0.5,2.6,1.4,3.5L65,94c0.9,0.9,2.2,1.4,3.5,1.4
				c1.3,0,2.6-0.5,3.5-1.4l3-3c1.9-1.9,1.9-5.1,0-7L41.2,50.2z"/>
		</g>
	</g>
</g>
</svg>
